<svg xmlns="http://www.w3.org/2000/svg" width="256" height="256" fill="none"><g clip-path="url(#a)"><path fill="#371722" d="M180.128 237.926c14.134 7.831 26.462 12.736 36.782 14.694a56.513 56.513 0 0 1-19.293 3.38h-22.776A175.026 175.026 0 0 1 0 81.153V58.376a56.133 56.133 0 0 1 3.38-19.243c6.254 33.53 42.834 84.166 86.074 127.408 30.53 30.529 62.738 55.9 90.673 71.38l.001.005Z"/><path fill="#371722" d="M233.485 194.648c16.873 30.411 17.321 46.725 12.614 51.461-4.737 4.709-21.05 4.261-51.46-12.613-29.458-16.341-63.656-43.277-96.25-75.878C26.295 85.526-2.153 21.982 9.902 9.904a11.86 11.86 0 0 1 8.603-2.692c11.239 0 30.664 7.456 54.966 22.565 24.275 15.108 53.453 37.924 84.145 68.614 32.598 32.599 59.533 66.767 75.875 96.253l-.006.004Z"/><path fill="#371722" d="M255.999 174.867v22.777a57.01 57.01 0 0 1-3.406 19.395c-1.932-10.347-6.837-22.725-14.692-36.885a337.978 337.978 0 0 0-30.048-44.36 522.893 522.893 0 0 0-41.331-46.314C123.256 46.213 72.594 9.634 39.068 3.38A56.499 56.499 0 0 1 58.36 0h22.776a175.086 175.086 0 0 1 123.592 51.274A175.062 175.062 0 0 1 256 174.87l-.001-.003Z"/><mask id="b" width="176" height="149" x="40.415" y="42.69" fill="#000" maskUnits="userSpaceOnUse"><path fill="#fff" d="M40.415 42.69h176v149h-176z"/><path d="m201.585 112.782-45.991 23.875v3.78h45.991v36.873H54.415v-36.873h45.991v-4.029l-45.99-23.626V66.69L128 106.301l73.585-39.61"/></mask><path fill="#BBAB9B" d="m201.585 112.782-45.991 23.875v3.78h45.991v36.873H54.415v-36.873h45.991v-4.029l-45.99-23.626V66.69L128 106.301l73.585-39.61"/><path fill="#371722" d="m155.594 136.657-6.45-12.425-7.55 3.919v8.506h14Zm0 3.78h-14v14h14v-14Zm45.991 0h14v-14h-14v14Zm0 36.873v14h14v-14h-14Zm-147.17 0h-14v14h14v-14Zm0-36.873v-14h-14v14h14Zm45.991 0v14h14v-14h-14Zm0-4.029h14v-8.547l-7.603-3.906-6.397 12.453Zm-45.99-23.626h-14v8.547l7.602 3.906 6.397-12.453Zm0-46.092 6.635-12.327-20.636-11.109V66.69h14ZM128 106.301l-6.636 12.328 6.636 3.572 6.636-3.572L128 106.301Zm67.134-5.945-45.99 23.876 12.901 24.851 45.99-23.876-12.901-24.851Zm-53.54 36.301v3.78h28v-3.78h-28Zm14 17.78h45.991v-28h-45.991v28Zm31.991-14v36.873h28v-36.873h-28Zm14 22.873H54.415v28h147.17v-28Zm-133.17 14v-36.873h-28v36.873h28Zm-14-22.873h45.991v-28h-45.99v28Zm59.991-14v-4.029h-28v4.029h28Zm-7.603-16.482-45.99-23.626-12.795 24.906 45.99 23.626 12.795-24.906Zm-38.388-11.173V66.69h-28v46.092h28ZM47.78 79.018l73.585 39.611 13.272-24.655-73.585-39.611L47.78 79.017Zm86.857 39.611 73.585-39.612-13.272-24.654-73.585 39.61 13.272 24.656Z" mask="url(#b)"/></g><defs><clipPath id="a"><path fill="#fff" d="M0 0h256v256H0z"/></clipPath></defs></svg>
